<svg xmlns="http://www.w3.org/2000/svg" viewBox="0 0 250.49 57.49"><defs><style>.cls-1{fill:#e77927;}.cls-2{fill:#215e45;}.cls-3{fill:#ffb500;}</style></defs><g id="Layer_2" data-name="Layer 2"><g id="Layer_1-2" data-name="Layer 1"><path class="cls-1" d="M89.53,0V20.33h9.91v4.51H84.52V0Z"/><path class="cls-1" d="M116.57,21.57v2.74a6.4,6.4,0,0,1-3.27.89,2.79,2.79,0,0,1-2.84-1.81,5.87,5.87,0,0,1-4.26,1.81c-2.78,0-5.3-1.64-5.3-4.62s2.17-4.76,5.47-5.69a30.18,30.18,0,0,1,3.59-.78v-.5c0-1.78-.85-2.7-2.52-2.7A9,9,0,0,0,102,13V9.2a9.52,9.52,0,0,1,6.11-1.92,6.82,6.82,0,0,1,4.8,1.64,5.7,5.7,0,0,1,1.63,4.19v8c0,.53.14.82.57.89A2.19,2.19,0,0,0,116.57,21.57Zm-8.92.39a2.87,2.87,0,0,0,2.28-1.13v-4c-3.06.43-4.69,1.39-4.69,3.23C105.24,21.22,106.16,22,107.65,22Z"/><path class="cls-1" d="M123.25,7.68v2a6.1,6.1,0,0,1,5.26-2.42c3.13,0,6,1.75,6,6.69V24.84H130V14c0-1.25-.43-3.13-2.78-3.13a4.27,4.27,0,0,0-3.69,2.38V24.84H119V7.68Z"/><path class="cls-1" d="M136.79,16.24c0-5.26,4.06-9,9.42-9a8.81,8.81,0,0,1,4.87,1.18v3.94A6.87,6.87,0,0,0,146.64,11c-2.88,0-5,2-5,5.29s2.17,5.33,5,5.33a6.73,6.73,0,0,0,4.44-1.38V24.1a8.57,8.57,0,0,1-4.87,1.17C140.85,25.27,136.79,21.5,136.79,16.24Z"/><path class="cls-1" d="M168.86,21.57v2.74a6.4,6.4,0,0,1-3.27.89,2.79,2.79,0,0,1-2.84-1.81,5.88,5.88,0,0,1-4.27,1.81c-2.77,0-5.29-1.64-5.29-4.62s2.17-4.76,5.47-5.69a30.18,30.18,0,0,1,3.59-.78v-.5c0-1.78-.85-2.7-2.52-2.7A9,9,0,0,0,154.26,13V9.2a9.52,9.52,0,0,1,6.11-1.92,6.82,6.82,0,0,1,4.8,1.64,5.7,5.7,0,0,1,1.63,4.19v8c0,.53.14.82.57.89A2.19,2.19,0,0,0,168.86,21.57Zm-8.92.39a2.89,2.89,0,0,0,2.28-1.13v-4c-3.06.43-4.7,1.39-4.7,3.23C157.52,21.22,158.45,22,159.94,22Z"/><path class="cls-1" d="M176.24,13.47l2.88,1.31a5.09,5.09,0,0,1,3.41,4.94c0,4.27-3.94,5.55-6.85,5.55A9.61,9.61,0,0,1,170.56,24V19.8a7.73,7.73,0,0,0,5.26,1.91c1.49,0,2.41-.6,2.41-1.59s-.67-1.46-1.52-1.85L173.86,17a5.27,5.27,0,0,1-3.3-4.66,4.57,4.57,0,0,1,0-.64c.39-3.16,3.45-4.44,6.19-4.44a9.24,9.24,0,0,1,5,1.24v3.95a7.48,7.48,0,0,0-4.73-1.64c-.89,0-1.95.29-2,1.18C175,12.54,175.39,13.08,176.24,13.47Z"/><path class="cls-1" d="M190.9,3.3V7.68h5.22v3.51H190.9v8c0,1.53.75,2.38,1.92,2.52h.57a6.06,6.06,0,0,0,3.3-1.1V24.1a9.28,9.28,0,0,1-4.44,1.2c-3.45,0-5.83-1.67-5.83-5.68V11.19h-3.8Z"/><path class="cls-1" d="M202.53,17.2a4.53,4.53,0,0,0,4.3,4.44,7.39,7.39,0,0,0,.92,0,8.37,8.37,0,0,0,5-1.6l.75,3.23a11.91,11.91,0,0,1-6.68,2c-5.55,0-9-3.77-9-9s3.62-9,8.46-9a7.25,7.25,0,0,1,5.54,2.1,9.06,9.06,0,0,1,2.31,6.61c0,.43,0,.82-.07,1.28Zm.14-3.06h7c-.11-1.91-1-3.55-3.41-3.55C204.48,10.59,203,11.76,202.67,14.14Z"/><path class="cls-1" d="M221,16.06v8.78h-4.55V7.68h4.19v2.84a5,5,0,0,1,4.48-3.24,5.09,5.09,0,0,1,3.41,1.11l-1.1,3.66a4.4,4.4,0,0,0-2.49-.78C222.28,11.27,221,13,221,16.06Z"/><rect class="cls-2" width="74.17" height="54.46"/><rect class="cls-1" x="12.98" y="12.36" width="11.37" height="29.85"/><path class="cls-3" d="M28.09,39.77,41.8,26.06,28.09,12.36ZM48,26.1l13.7,13.71,0-27.45Z"/><polygon class="cls-1" points="58.57 42.2 44.86 28.5 31.16 42.2 58.57 42.2"/><path class="cls-2" d="M124.67,54.46V52.33a6.6,6.6,0,0,1-5.23,2.52c-4.08,0-5.82-2.66-5.82-7.25V37.3h4.55V47.92c0,2.06.78,3.41,2.73,3.41a4.21,4.21,0,0,0,3.48-2.27V37.3h4.55V54.46Z"/><path class="cls-2" d="M138.25,32.92V37.3h5.22v3.51h-5.22v8c0,1.53.74,2.38,1.92,2.52h.56a6.09,6.09,0,0,0,3.31-1.1v3.48a9.19,9.19,0,0,1-4.44,1.21c-3.45,0-5.83-1.67-5.83-5.68V40.81H130.1Z"/><path class="cls-2" d="M156.91,54.46V52.33a6.61,6.61,0,0,1-5.23,2.52c-4.09,0-5.83-2.66-5.83-7.25V37.3h4.55V47.92c0,2.06.78,3.41,2.74,3.41a4.21,4.21,0,0,0,3.48-2.27V37.3h4.55V54.46Z"/><path class="cls-2" d="M178.34,51.19v2.74a6.4,6.4,0,0,1-3.27.89A2.78,2.78,0,0,1,172.23,53,5.87,5.87,0,0,1,168,54.82c-2.77,0-5.29-1.64-5.29-4.62s2.17-4.77,5.47-5.69a28,28,0,0,1,3.59-.78v-.5c0-1.78-.85-2.7-2.52-2.7a9,9,0,0,0-5.48,2.06V38.82a9.57,9.57,0,0,1,6.12-1.92,6.78,6.78,0,0,1,4.79,1.64,5.67,5.67,0,0,1,1.64,4.19v8c0,.53.14.82.57.89A2.26,2.26,0,0,0,178.34,51.19Zm-8.92.39a2.85,2.85,0,0,0,2.27-1.13v-4c-3.05.42-4.69,1.38-4.69,3.23C167,50.84,167.93,51.58,169.42,51.58Z"/><path class="cls-2" d="M185.27,29.62V54.46h-4.51V29.62Z"/><path class="cls-2" d="M106.23,54.51V41.17L98.1,49.39,89.56,41l0,13.5h-5V29.09L98,42.41,111.2,29.13V54.51Z"/><path class="cls-2" d="M193.58,32.91V42.2h-1.87V32.91Z"/><path class="cls-2" d="M197.47,35.78v.76a2.29,2.29,0,0,1,2-.91,2.17,2.17,0,0,1,2.26,2.5V42.2H200V38.13c0-.46-.16-1.17-1-1.17a1.59,1.59,0,0,0-1.38.89V42.2h-1.7V35.78Z"/><path class="cls-2" d="M205.68,38l1.08.49A1.91,1.91,0,0,1,208,40.28c0,1.6-1.47,2.08-2.56,2.08a3.56,3.56,0,0,1-1.91-.47V40.31a2.88,2.88,0,0,0,2,.72c.56,0,.91-.23.91-.6s-.26-.54-.58-.69l-1.06-.48a2,2,0,0,1-1.23-1.74,1.93,1.93,0,0,1,0-.24,2.11,2.11,0,0,1,2.31-1.66,3.42,3.42,0,0,1,1.88.47v1.47A2.85,2.85,0,0,0,206,37c-.34,0-.73.11-.75.44S205.36,37.8,205.68,38Z"/><path class="cls-2" d="M213.89,42.2v-.8a2.46,2.46,0,0,1-1.95,1c-1.53,0-2.18-1-2.18-2.72V35.78h1.7v4c0,.77.29,1.28,1,1.28a1.6,1.6,0,0,0,1.31-.85v-4.4h1.7V42.2Z"/><path class="cls-2" d="M219.35,38.92V42.2h-1.7V35.78h1.57v1.06a1.89,1.89,0,0,1,2.95-.79l-.41,1.36a1.71,1.71,0,0,0-.93-.29C219.84,37.12,219.35,37.79,219.35,38.92Z"/><path class="cls-2" d="M228.72,41v1a2.4,2.4,0,0,1-1.22.33,1,1,0,0,1-1.07-.68,2.17,2.17,0,0,1-1.59.68,1.79,1.79,0,0,1-2-1.73c0-1.1.81-1.78,2-2.12a8.85,8.85,0,0,1,1.35-.29V38c0-.67-.32-1-.95-1a3.31,3.31,0,0,0-2,.77V36.35a3.57,3.57,0,0,1,2.28-.72,2.61,2.61,0,0,1,1.8.61,2.17,2.17,0,0,1,.61,1.57v3c0,.2.05.31.21.34A.88.88,0,0,0,228.72,41Zm-3.34.14a1.06,1.06,0,0,0,.85-.42V39.19c-1.14.17-1.75.52-1.75,1.21C224.48,40.84,224.82,41.12,225.38,41.12Z"/><path class="cls-2" d="M231.7,35.78v.76a2.3,2.3,0,0,1,2-.91,2.17,2.17,0,0,1,2.26,2.5V42.2h-1.7V38.13c0-.46-.16-1.17-1-1.17a1.61,1.61,0,0,0-1.38.89V42.2h-1.7V35.78Z"/><path class="cls-2" d="M237.65,39A3.63,3.63,0,0,1,243,36.05v1.47a2.59,2.59,0,0,0-1.66-.52,2,2,0,0,0,0,4,2.54,2.54,0,0,0,1.66-.52v1.46a3.24,3.24,0,0,1-1.82.44A3.36,3.36,0,0,1,237.65,39Z"/><path class="cls-2" d="M246,39.34A1.7,1.7,0,0,0,247.57,41a2.06,2.06,0,0,0,.34,0,3.15,3.15,0,0,0,1.87-.6l.28,1.21a4.39,4.39,0,0,1-2.49.73,3.38,3.38,0,0,1-.22-6.75,2.74,2.74,0,0,1,2.08.78,3.39,3.39,0,0,1,.86,2.47,4,4,0,0,1,0,.48Zm0-1.14h2.62c0-.72-.37-1.33-1.28-1.33A1.36,1.36,0,0,0,246,38.2Z"/><path class="cls-2" d="M191.27,49.85c0-2.86,2.19-4.85,5.27-4.85a5.3,5.3,0,0,1,3,.74v1.79a4.31,4.31,0,0,0-3-1.06,3.39,3.39,0,0,0,0,6.77,4.27,4.27,0,0,0,3-1.07V54a5.3,5.3,0,0,1-3,.74C193.46,54.71,191.27,52.7,191.27,49.85Z"/><path class="cls-2" d="M200.74,51.28a3.37,3.37,0,0,1,3.51-3.37,3.38,3.38,0,1,1-3.51,3.37Zm1.79,0a1.75,1.75,0,1,0,1.72-2A1.79,1.79,0,0,0,202.53,51.28Z"/><path class="cls-2" d="M211.11,48.08v.8a2.18,2.18,0,0,1,1.94-1A2,2,0,0,1,214.92,49,2.48,2.48,0,0,1,217,47.93c1.12,0,2.16.65,2.16,2.5V54.5h-1.71V50.43c0-.45-.15-1.17-1-1.17a1.49,1.49,0,0,0-1.32.92,2,2,0,0,1,0,.25V54.5h-1.7V50.43c0-.45-.16-1.17-1-1.17a1.46,1.46,0,0,0-1.31.89V54.5h-1.7V48.08Z"/><path class="cls-2" d="M223.06,54.45v3h-1.7V48.08h1.54v.69a2.27,2.27,0,0,1,1.8-.85,2.59,2.59,0,0,1,1.95.73,3.38,3.38,0,0,1,.9,2.59,3.32,3.32,0,0,1-3.4,3.42A2.84,2.84,0,0,1,223.06,54.45Zm0-4.52v3.21a2,2,0,0,0,1,.24c1.07,0,1.74-.78,1.74-2.08a2.22,2.22,0,0,0-.53-1.63,1.47,1.47,0,0,0-1-.37A1.44,1.44,0,0,0,223.06,49.93Z"/><path class="cls-2" d="M234.78,53.28v1a2.51,2.51,0,0,1-1.23.33,1,1,0,0,1-1.06-.68,2.17,2.17,0,0,1-1.59.68,1.8,1.8,0,0,1-2-1.73c0-1.1.82-1.78,2.05-2.12a10.18,10.18,0,0,1,1.34-.3V50.3c0-.67-.32-1-.94-1a3.36,3.36,0,0,0-2.05.77V48.65a3.62,3.62,0,0,1,2.29-.72,2.58,2.58,0,0,1,1.79.61,2.13,2.13,0,0,1,.61,1.57v3c0,.2.06.31.22.34A.9.9,0,0,0,234.78,53.28Zm-3.34.14a1.06,1.06,0,0,0,.85-.42V51.49c-1.14.16-1.75.52-1.75,1.21C230.54,53.14,230.88,53.42,231.44,53.42Z"/><path class="cls-2" d="M237.76,48.08v.76a2.29,2.29,0,0,1,2-.91,2.17,2.17,0,0,1,2.26,2.5V54.5h-1.7V50.43c0-.46-.16-1.17-1-1.17a1.59,1.59,0,0,0-1.38.89V54.5h-1.7V48.08Z"/><path class="cls-2" d="M245.37,48.08l1.73,3.71,1.62-3.71h1.77l-4.19,9.4h-1.75l1.65-3.71-2.89-5.7Z"/></g></g></svg>