<svg xmlns="http://www.w3.org/2000/svg" viewBox="0 0 176.73 176.73"><defs><style>.cls-1{fill:#235f46;}</style></defs><g id="Layer_2" data-name="Layer 2"><g id="Layer_1-2" data-name="Layer 1"><g id="Group_45" data-name="Group 45"><path id="Path_38" data-name="Path 38" class="cls-1" d="M88.36,6.06a82.3,82.3,0,1,1-58.2,24.11A82.31,82.31,0,0,1,88.36,6.06m0-6.06a88.37,88.37,0,1,0,88.37,88.37h0A88.36,88.36,0,0,0,88.37,0Z"/><path id="Path_39" data-name="Path 39" class="cls-1" d="M60.91,55.23a5.43,5.43,0,0,1,5.42,5.42v11a5.42,5.42,0,0,1-10.84,0v-11a5.43,5.43,0,0,1,5.42-5.42m0-5.56a11,11,0,0,0-11,11h0v11a11,11,0,0,0,22,0v-11a11,11,0,0,0-11-11Z"/><path id="Path_40" data-name="Path 40" class="cls-1" d="M115.93,55.23a5.43,5.43,0,0,1,5.42,5.42v11a5.42,5.42,0,1,1-10.84,0v-11a5.42,5.42,0,0,1,5.42-5.42m0-5.56a11,11,0,0,0-11,11h0v11a11,11,0,1,0,22,0v-11a11,11,0,0,0-11-11Z"/><path id="Path_41" data-name="Path 41" class="cls-1" d="M87.76,132.53c-17,0-32.54-9.46-39.48-24.1a3,3,0,0,1,5.47-2.6c6,12.54,19.3,20.63,34,20.63s28.06-8.1,34-20.63a3,3,0,1,1,5.48,2.6C120.29,123.07,104.8,132.53,87.76,132.53Z"/></g></g></g></svg>