<svg xmlns="http://www.w3.org/2000/svg" viewBox="0 0 420.11 420.11"><defs><style>.cls-1{fill:#ff7714;}.cls-2{fill:#117a50;}.cls-3{fill:#215e45;}.cls-4{fill:#ffb500;}</style></defs><g id="Layer_2" data-name="Layer 2"><g id="Layer_1-2" data-name="Layer 1"><g id="Layer_2-2" data-name="Layer 2"><g id="Layer_1-3" data-name="Layer 1"><path id="Path_24" data-name="Path 24" class="cls-1" d="M311.06,184.92l.71,8.23.18,2.06a20.21,20.21,0,0,0,.23,2l.31,2.05h5.18l.32-2.05c.11-.68.18-1.36.23-2l.17-2.06.72-8.23,1.12-13.29H309.94Z"/><path id="Path_25" data-name="Path 25" class="cls-1" d="M295.67,196.41l.43,2.89h7l.34-2.3c.09-.71.25-1.39.4-2.08l.49-2,1.8-8.2,2.89-13h-9.74Z"/><path id="Path_26" data-name="Path 26" class="cls-1" d="M288.38,171.63l-9,25.29.33,2.38h7l.43-2.93.18-1.23,10.92-23.51Z"/><path id="Path_27" data-name="Path 27" class="cls-1" d="M283,171.63a.41.41,0,0,0-.31.14l-22.24,27.12a.17.17,0,0,0,0,.21.35.35,0,0,0,.34.2h9.45l.38-2.83.23-1.64.27-.37,16.16-22.83Z"/><path id="Path_28" data-name="Path 28" class="cls-1" d="M315.08,105l-105,105,105,105,105-105Zm53.49,98.12h-8v43.39a2,2,0,0,1-2,2H309a2,2,0,0,1-1.92-1.92v-29a2.25,2.25,0,0,0-2.26-2.25H291a2.25,2.25,0,0,0-2.26,2.24h0v29.06a1.92,1.92,0,0,1-1.92,1.92H271.62a2,2,0,0,1-2-2V203.15h-8.85a4.15,4.15,0,0,1-3.15-6.93l22.67-27a4.21,4.21,0,0,1,3.27-1.51h62.22a4.25,4.25,0,0,1,3.28,1.51l22.69,27a4.12,4.12,0,0,1-.28,5.82,4.17,4.17,0,0,1-2.89,1.07Z"/><path id="Path_29" data-name="Path 29" class="cls-1" d="M325.92,192.87l.46,2c.14.7.3,1.37.39,2.08l.34,2.3h7l.43-2.88L331,171.67h-9.7l2.88,13.05Z"/><path id="Path_30" data-name="Path 30" class="cls-1" d="M346.65,171.77a.37.37,0,0,0-.3-.14H343l16.14,22.86.26.38.23,1.63.38,2.83h8.54c.64,0,.7-.58.64-.64Z"/><path id="Path_31" data-name="Path 31" class="cls-1" d="M332,171.63,343,195.14l.17,1.23.43,2.93h7l.33-2.38-9-25.29Z"/><rect id="Rectangle_122" data-name="Rectangle 122" class="cls-1" x="323.89" y="211.84" width="18.3" height="21.08" rx="2.34"/></g></g><g id="Layer_2-2-2" data-name="Layer 2-2"><g id="Layer_1-2-2" data-name="Layer 1-2"><path id="Path_35" data-name="Path 35" class="cls-2" d="M200.75,91.91V101a2.13,2.13,0,0,0,2.13,2.13h13A2.13,2.13,0,0,0,218,101V91.87a8.66,8.66,0,0,0-17.32-.19v.19Z"/><path id="Path_36" data-name="Path 36" class="cls-2" d="M210.05,0,105,105l105,105,105-105ZM252.7,140.31a1.93,1.93,0,0,1-1.93,1.93H204.11a2,2,0,0,1-2-2V119.7a2.14,2.14,0,0,0-2.12-2.14H187a2.13,2.13,0,0,0-2.11,2.14h0v20.54a2,2,0,0,1-2,2H168.68a1.92,1.92,0,0,1-1.92-1.93V107l43-36,.14-.11H210l.13.13,42.56,35.89Zm7.7-38.8c-.51,1.73-1.75,2.48-2.79,1.68l-1.28-1h0l-8.66-6.81L211.64,65a2.63,2.63,0,0,0-3.38,0L177.63,90.66,166.76,99.4h0l-5,4c-1,.81-2.28,0-2.79-1.73L156.68,94c-.51-1.76-.1-3.85,1-4.67l15-11.82v-17a2.13,2.13,0,0,1,2.13-2.13h7.51a2.14,2.14,0,0,1,2.14,2.12h0v7.7s24.24-19.12,24.46-19.12a1.37,1.37,0,0,1,1.57.13l51.15,40.18c1,.81,1.47,2.88,1,4.62Z"/><rect id="Rectangle_123" data-name="Rectangle 123" class="cls-2" x="222.93" y="116.19" width="12.91" height="14.87" rx="2.21"/></g></g><g id="Layer_2-3" data-name="Layer 2-3"><g id="Layer_1-3-2" data-name="Layer 1-3"><path id="Path_37" data-name="Path 37" class="cls-3" d="M210.05,210.05l-105,105,105,105,105-105Zm56,111.06a16.53,16.53,0,0,0-18.38.09,3.79,3.79,0,0,1-4.25,0,16.51,16.51,0,0,0-18.5,0,3.84,3.84,0,0,1-4.26,0,16.59,16.59,0,0,0-6.48-2.61v33.59A11.54,11.54,0,0,1,192.8,358c-.08-.12-.15-.25-.22-.37a2.8,2.8,0,0,1,2.48-4.09h0a2.78,2.78,0,0,1,2.34,1.29l.06.08c1.53,2.28,3.64,4,7.13,3.23,2.63-.7,4-4.22,4-7.39V318.6a16.4,16.4,0,0,0-6.44,2.6,3.82,3.82,0,0,1-4.25,0,16.52,16.52,0,0,0-18.51,0,3.77,3.77,0,0,1-4.24,0,16.53,16.53,0,0,0-18.38-.09,2.24,2.24,0,0,1-3.45-2.1,58.44,58.44,0,0,1,56.76-52.24V265a1.27,1.27,0,0,1,2.54,0v1.78a58.42,58.42,0,0,1,56.9,52.2,2.23,2.23,0,0,1-3.44,2.11Z"/></g></g><g id="Layer_2-4" data-name="Layer 2-4"><g id="Layer_1-4" data-name="Layer 1-4"><path id="Path_44" data-name="Path 44" class="cls-4" d="M105,105,0,210.06l105,105,105-105ZM70.88,167.76h0c0-6.74,6.48-12.15,14.48-12.15S99.85,161,99.85,167.76v9.79a2,2,0,0,1-.77,1.55L80.65,193.81A3.41,3.41,0,0,0,79.38,196l-1.46,9.37-7.08,1.18ZM41.55,226.15l8.51-10.58a1.49,1.49,0,0,1,.86-.34l8.4-1.79,2.7-.51,15.4-2.59-2.48,16.25-33.33.76a.79.79,0,0,1-.15-1.1l.09-.1Zm41,18.15a2,2,0,0,1-2,2H47.32a1,1,0,0,1-.9-1V232.1l28-.63-.55,3.61a3,3,0,0,0,2.51,3.41,3.44,3.44,0,0,0,.46,0h3.7a2,2,0,0,1,2,2Zm83.22-10.58h-4.66a1.06,1.06,0,0,0-1.06,1.05L160,245.35a1.32,1.32,0,0,1-1.32,1.3H135.16a1.3,1.3,0,0,1-1.31-1.31V226.46h-.09a10.28,10.28,0,0,0-20.56.08,9.36,9.36,0,0,0,.09,1.3v17.51a1.3,1.3,0,0,1-1.31,1.31h0l-15.45-.35H89.4a2,2,0,0,1-2-2v-7.07a3.59,3.59,0,0,0-3.59-3.57H79.65a.77.77,0,0,1-.76-.77s0-.07,0-.1L84,199a2.74,2.74,0,0,1,1-1.72l32.36-25.71a8.65,8.65,0,0,1,10.85,0l32.25,25.71a2.67,2.67,0,0,1,1,1.72l5.06,33.84a.76.76,0,0,1-.65.86h-.06Z"/></g></g></g></g></svg>